<?xml version="1.0" standalone="no"?>
<!DOCTYPE svg PUBLIC "-//W3C//DTD SVG 20010904//EN"
 "http://www.w3.org/TR/2001/REC-SVG-20010904/DTD/svg10.dtd">
<svg version="1.0" xmlns="http://www.w3.org/2000/svg"
 width="360.000000pt" height="360.000000pt" viewBox="0 0 360.000000 360.000000"
 preserveAspectRatio="xMidYMid meet">
<metadata>
Created by potrace 1.11, written by Peter Selinger 2001-2013
</metadata>
<g transform="translate(0.000000,360.000000) scale(0.100000,-0.100000)"
fill="#000000" stroke="none">
<path d="M773 3180 c-179 -32 -341 -154 -418 -315 -148 -311 13 -683 341 -785
61 -18 204 -38 204 -27 0 3 -50 85 -111 183 -132 211 -141 231 -141 309 -1
191 196 337 376 280 86 -27 129 -73 245 -259 56 -91 107 -166 112 -166 15 0
41 104 46 190 16 260 -157 504 -407 574 -72 20 -182 27 -247 16z"/>
<path d="M862 2651 c-44 -32 -68 -85 -58 -127 4 -14 193 -324 421 -689 275
-440 415 -672 415 -689 0 -54 -70 -93 -119 -67 -10 6 -48 60 -86 121 -38 61
-71 113 -75 115 -13 8 -40 -96 -40 -151 0 -105 64 -217 153 -268 23 -13 195
-77 381 -140 187 -64 345 -121 351 -126 6 -5 39 -55 74 -110 72 -116 85 -130
114 -129 12 0 225 127 472 282 386 243 450 286 453 308 2 18 -18 59 -64 132
l-66 107 -2 152 c-3 164 -17 230 -73 343 -28 56 -427 699 -452 729 -25 30 -77
48 -117 40 -21 -4 -52 -22 -75 -44 -34 -32 -39 -43 -39 -81 0 -38 11 -62 70
-157 80 -128 88 -166 44 -201 -31 -25 -61 -27 -91 -6 -11 8 -71 97 -133 197
-62 101 -125 195 -141 211 -50 46 -131 34 -189 -28 -19 -20 -25 -37 -25 -73 0
-43 11 -65 123 -242 130 -208 142 -240 102 -280 -19 -19 -63 -26 -93 -14 -9 3
-89 123 -179 266 -168 268 -192 298 -251 298 -39 0 -100 -34 -122 -67 -10 -15
-18 -46 -18 -68 0 -34 22 -76 161 -298 177 -283 186 -306 136 -346 -34 -27
-67 -27 -98 2 -13 12 -173 261 -355 552 -226 362 -341 537 -362 553 -45 31
-96 29 -147 -7z"/>
</g>
</svg>
